<?xml version="1.0" encoding="UTF-8"?>
<svg id="Layer_1" data-name="Layer 1" xmlns="http://www.w3.org/2000/svg" xmlns:xlink="http://www.w3.org/1999/xlink" viewBox="0 0 2178.29 738.2">
  <defs>
    <style>
      .cls-1 {
        clip-path: url(#clippath-6);
      }

      .cls-2 {
        clip-path: url(#clippath-7);
      }

      .cls-3 {
        clip-path: url(#clippath-4);
      }

      .cls-4 {
        clip-path: url(#clippath-9);
      }

      .cls-5 {
        fill: #fff;
      }

      .cls-6 {
        fill: none;
      }

      .cls-7 {
        fill: #04f2fc;
      }

      .cls-8 {
        clip-path: url(#clippath-1);
      }

      .cls-9 {
        clip-path: url(#clippath-5);
      }

      .cls-10 {
        clip-path: url(#clippath-8);
      }

      .cls-11 {
        clip-path: url(#clippath-3);
      }

      .cls-12 {
        clip-path: url(#clippath-2);
      }

      .cls-13 {
        clip-path: url(#clippath);
      }
    </style>
    <clipPath id="clippath">
      <polygon class="cls-5" points="1568.96 318.24 1513.53 318.24 1407.04 514.33 1458.34 514.33 1535.54 366.98 1567.11 512.48 1567.52 514.33 1613.43 514.33 1569.1 318.92 1568.96 318.24"/>
    </clipPath>
    <clipPath id="clippath-1">
      <path class="cls-5" d="M942.45,444.42c-5.67,9.51-14.03,16.98-24.78,22.24-10.83,5.28-23.72,7.97-38.35,7.97-11.34,0-22.4-2.04-32.91-6.08-10.45-4.02-19.2-10.15-26.05-18.24-6.77-8.02-10.47-17.9-10.95-29.37-.53-12.27,2.04-23.31,7.63-32.8,5.58-9.48,13.89-16.98,24.66-22.22,10.85-5.28,23.74-7.97,38.35-7.97,11.33,0,22.4,2.04,32.93,6.08,10.42,4.04,19.24,10.15,26.17,18.26,6.86,8,10.58,17.89,11.08,29.37.53,12.27-2.08,23.29-7.75,32.79M998.05,407.44c-.82-19.4-7.13-36.32-18.74-50.33-11.52-13.92-26.47-24.59-44.4-31.74-17.89-7.11-36.95-10.72-56.68-10.72-23.61,0-44.64,4.6-62.51,13.65-17.92,9.1-31.83,22.19-41.28,38.9-9.46,16.71-13.8,36.22-12.87,57.91.84,19.4,7.11,36.32,18.62,50.33,11.47,13.92,26.35,24.61,44.29,31.74,17.85,7.11,36.91,10.7,56.65,10.7,23.63,0,44.64-4.6,62.51-13.65,17.94-9.1,31.86-22.17,41.43-38.9,9.57-16.71,13.92-36.2,13-57.91v.02Z"/>
    </clipPath>
    <clipPath id="clippath-2">
      <path class="cls-5" d="M1160.78,398.25c-2.26,4.37-5.57,7.88-9.85,10.37-4.32,2.52-9.25,3.79-14.65,3.79h-73.68l9.55-51.45h64.86c5.28,0,10.01.92,14.08,2.74,3.96,1.8,7.06,4.37,9.19,7.66,2.15,3.27,3.34,7.02,3.5,11.09.27,6.1-.75,11.41-3,15.81M1211.52,375.76c-.48-11.09-3.48-21.05-8.93-29.64-5.46-8.59-13.62-15.47-24.22-20.45-10.53-4.94-23.26-7.43-37.83-7.43h-106.5l-35.95,195.04-.18,1.05h48.08l11.06-59.22h83.74c14.33,0,27.15-3.36,38.14-9.99,11.01-6.65,19.45-16.11,25.1-28.09,5.62-11.93,8.14-25.82,7.49-41.28v.02Z"/>
    </clipPath>
    <clipPath id="clippath-3">
      <polygon class="cls-5" points="1272.93 433.65 1377.8 433.65 1386.03 395.88 1231.7 395.88 1210.07 513.28 1209.89 514.33 1388.06 514.33 1395.84 472.43 1265.73 472.43 1272.93 433.65"/>
    </clipPath>
    <clipPath id="clippath-4">
      <polygon class="cls-5" points="1284.86 360.13 1414.94 360.13 1422.41 318.22 1244.26 318.22 1236.52 360.22 1284.08 360.22 1284.86 360.13"/>
    </clipPath>
    <clipPath id="clippath-5">
      <path class="cls-5" d="M594.91,365.32c5.24-2.61,11.02-4.62,17.14-5.96,6.08-1.33,12.68-1.99,19.58-1.99,9.48,0,18.88,1.35,27.9,4.07,8.91,2.68,17.12,7.08,24.41,13.05,5.17,4.23,9.44,9.46,12.68,15.5,1.28,2.35,2.44,4.91,3.43,7.57l.41,1.1h47.83l-.34-1.94c-.48-2.56-1.01-4.98-1.65-7.38-3.79-14.44-10.83-27.17-20.98-37.82-11.77-12.43-26.15-21.78-42.69-27.82-16.48-6.03-34.14-9.07-52.5-9.07-22.65,0-42.99,4.6-60.52,13.67-17.6,9.1-31.27,22.17-40.64,38.9-9.39,16.73-13.69,36.22-12.75,57.89.82,18.83,6.85,35.58,17.92,49.75,11.02,14.1,24.86,24.91,41.12,32.16,16.23,7.22,32.5,10.86,48.43,10.86,13.23,0,24.91-2.08,34.78-6.17,9.89-4.09,18.1-9.64,24.41-16.5l.23-.27c.16-.16.28-.32.39-.43,5.71-6.33,10.4-13.55,13.97-21.51h.53l-17.1,41.34h43.04l18.99-103.03h-108.4l-7.75,34.17h65.73c-.69,1.35-1.49,2.74-2.35,4.16-4.87,7.91-12.16,14.4-21.69,19.36-9.58,5-21.92,7.54-36.7,7.54-6.85,0-13.53-.73-19.88-2.15-4.62-1.05-9.17-2.51-13.51-4.34-10.13-4.27-18.47-10.67-24.8-19.01-6.31-8.29-9.8-18.44-10.29-30.14-.53-12.48,1.99-23.66,7.49-33.25,5.53-9.58,13.65-17.1,24.14-22.37v.02Z"/>
    </clipPath>
    <clipPath id="clippath-6">
      <polygon class="cls-5" points="1866.63 318.24 1798.83 318.24 1701.6 403.74 1717.35 318.24 1669.27 318.24 1633.32 513.28 1633.15 514.33 1681.22 514.33 1698.04 423 1765.67 513.66 1766.19 514.33 1825.68 514.33 1750.08 417.65 1866.63 318.24"/>
    </clipPath>
    <clipPath id="clippath-7">
      <path class="cls-5" d="M2035.67,417.7c-9.21-7.29-20.07-12.27-32.25-14.77-11.89-2.45-27.54-4.46-46.49-5.94-12.64-.91-22.54-1.87-29.46-2.86-6.69-.98-12.37-2.83-16.89-5.46-4.23-2.45-6.38-5.78-6.56-10.15-.34-7.91,4-13.62,13.28-17.39,9.67-3.95,23.08-5.94,39.91-5.94,10.9,0,20.8,1.14,29.44,3.38,8.48,2.2,15.11,5.71,19.72,10.44,4.46,4.55,6.1,10.21,4.98,17.35l-.34,4.61,49.87-23.74-.09-.64c-1.23-7.7-4.32-14.63-9.17-20.64-8.57-10.56-21.14-18.53-37.39-23.66-16.13-5.05-34.51-7.63-54.67-7.63-36.22,0-63.12,6.06-79.9,18.06-17,12.09-25.19,28-24.36,47.26.59,13.87,5.48,24.57,14.53,31.83,8.82,7.11,19.36,11.93,31.36,14.38,11.77,2.38,27.02,4.34,45.36,5.8,12.84.91,23.02,2.01,30.31,3.29,7.15,1.26,13.25,3.36,18.08,6.26,4.59,2.74,6.92,6.47,7.15,11.4.23,5.49-1.62,10.06-5.51,13.57-4.04,3.64-10.4,6.4-18.9,8.16-8.68,1.81-19.88,2.74-33.28,2.74-18.47,0-32.93-2.77-43.01-8.2-9.76-5.26-13.55-13.83-11.52-26.24l.6-4.87-50.69,26.24.07.6c1.74,14.95,9.35,26.78,22.6,35.11,18.78,11.86,45.64,17.87,79.87,17.87,38.23,0,66.32-6.15,83.53-18.31,17.42-12.29,25.8-28.84,24.91-49.2-.59-14.22-5.67-25.21-15.06-32.68l-.02-.02Z"/>
    </clipPath>
    <clipPath id="clippath-8">
      <path class="cls-5" d="M440.8,314.26l-130.66,144.85c-3.82,4.25-10.44,4.43-14.51.37l-13.62-13.64-68.02-67.99-60.7,79.95-35.88,47.26h55.74l44.73-58.92.69-.92,73.32,73.32c6.99,6.99,18.38,6.69,25-.64l123.91-137.36.2-.2v-66.3l-.2.21Z"/>
    </clipPath>
    <clipPath id="clippath-9">
      <path class="cls-6" d="M305.43,364.66c-1.21,1.35-2.83,2.06-4.5,2.19-1.83.12-3.73-.52-5.16-1.94l-41.04-41.03-27.97,36.98,70.53,70.57c1.03,1.03,2.29,1.67,3.63,1.9,2.28.41,4.71-.32,6.38-2.17l133.49-147.98v-68.59l-135.37,150.08Z"/>
    </clipPath>
  </defs>
  <g>
    <polygon class="cls-5" points="1568.96 318.24 1513.53 318.24 1407.04 514.33 1458.34 514.33 1535.54 366.98 1567.11 512.48 1567.52 514.33 1613.43 514.33 1569.1 318.92 1568.96 318.24"/>
    <g class="cls-13">
      <path class="cls-5" d="M506.67,305.24h1116.32v222.05H506.67v-222.05Z"/>
    </g>
  </g>
  <g>
    <path class="cls-5" d="M942.45,444.42c-5.67,9.51-14.03,16.98-24.78,22.24-10.83,5.28-23.72,7.97-38.35,7.97-11.34,0-22.4-2.04-32.91-6.08-10.45-4.02-19.2-10.15-26.05-18.24-6.77-8.02-10.47-17.9-10.95-29.37-.53-12.27,2.04-23.31,7.63-32.8,5.58-9.48,13.89-16.98,24.66-22.22,10.85-5.28,23.74-7.97,38.35-7.97,11.33,0,22.4,2.04,32.93,6.08,10.42,4.04,19.24,10.15,26.17,18.26,6.86,8,10.58,17.89,11.08,29.37.53,12.27-2.08,23.29-7.75,32.79M998.05,407.44c-.82-19.4-7.13-36.32-18.74-50.33-11.52-13.92-26.47-24.59-44.4-31.74-17.89-7.11-36.95-10.72-56.68-10.72-23.61,0-44.64,4.6-62.51,13.65-17.92,9.1-31.83,22.19-41.28,38.9-9.46,16.71-13.8,36.22-12.87,57.91.84,19.4,7.11,36.32,18.62,50.33,11.47,13.92,26.35,24.61,44.29,31.74,17.85,7.11,36.91,10.7,56.65,10.7,23.63,0,44.64-4.6,62.51-13.65,17.94-9.1,31.86-22.17,41.43-38.9,9.57-16.71,13.92-36.2,13-57.91v.02Z"/>
    <g class="cls-8">
      <path class="cls-5" d="M506.67,305.24h1116.32v222.05H506.67v-222.05Z"/>
    </g>
  </g>
  <g>
    <path class="cls-5" d="M1160.78,398.25c-2.26,4.37-5.57,7.88-9.85,10.37-4.32,2.52-9.25,3.79-14.65,3.79h-73.68l9.55-51.45h64.86c5.28,0,10.01.92,14.08,2.74,3.96,1.8,7.06,4.37,9.19,7.66,2.15,3.27,3.34,7.02,3.5,11.09.27,6.1-.75,11.41-3,15.81M1211.52,375.76c-.48-11.09-3.48-21.05-8.93-29.64-5.46-8.59-13.62-15.47-24.22-20.45-10.53-4.94-23.26-7.43-37.83-7.43h-106.5l-35.95,195.04-.18,1.05h48.08l11.06-59.22h83.74c14.33,0,27.15-3.36,38.14-9.99,11.01-6.65,19.45-16.11,25.1-28.09,5.62-11.93,8.14-25.82,7.49-41.28v.02Z"/>
    <g class="cls-12">
      <path class="cls-5" d="M506.67,305.24h1116.32v222.05H506.67v-222.05Z"/>
    </g>
  </g>
  <g>
    <polygon class="cls-5" points="1272.93 433.65 1377.8 433.65 1386.03 395.88 1231.7 395.88 1210.07 513.28 1209.89 514.33 1388.06 514.33 1395.84 472.43 1265.73 472.43 1272.93 433.65"/>
    <g class="cls-11">
      <path class="cls-5" d="M506.67,305.24h1116.32v222.05H506.67v-222.05Z"/>
    </g>
  </g>
  <rect class="cls-5" x="1236.15" y="317.39" width="186.47" height="43.38"/>
  <g>
    <polygon class="cls-5" points="1284.86 360.13 1414.94 360.13 1422.41 318.22 1244.26 318.22 1236.52 360.22 1284.08 360.22 1284.86 360.13"/>
    <g class="cls-3">
      <path class="cls-5" d="M506.67,305.24h1116.32v222.05H506.67v-222.05Z"/>
    </g>
  </g>
  <g>
    <path class="cls-5" d="M594.91,365.32c5.24-2.61,11.02-4.62,17.14-5.96,6.08-1.33,12.68-1.99,19.58-1.99,9.48,0,18.88,1.35,27.9,4.07,8.91,2.68,17.12,7.08,24.41,13.05,5.17,4.23,9.44,9.46,12.68,15.5,1.28,2.35,2.44,4.91,3.43,7.57l.41,1.1h47.83l-.34-1.94c-.48-2.56-1.01-4.98-1.65-7.38-3.79-14.44-10.83-27.17-20.98-37.82-11.77-12.43-26.15-21.78-42.69-27.82-16.48-6.03-34.14-9.07-52.5-9.07-22.65,0-42.99,4.6-60.52,13.67-17.6,9.1-31.27,22.17-40.64,38.9-9.39,16.73-13.69,36.22-12.75,57.89.82,18.83,6.85,35.58,17.92,49.75,11.02,14.1,24.86,24.91,41.12,32.16,16.23,7.22,32.5,10.86,48.43,10.86,13.23,0,24.91-2.08,34.78-6.17,9.89-4.09,18.1-9.64,24.41-16.5l.23-.27c.16-.16.28-.32.39-.43,5.71-6.33,10.4-13.55,13.97-21.51h.53l-17.1,41.34h43.04l18.99-103.03h-108.4l-7.75,34.17h65.73c-.69,1.35-1.49,2.74-2.35,4.16-4.87,7.91-12.16,14.4-21.69,19.36-9.58,5-21.92,7.54-36.7,7.54-6.85,0-13.53-.73-19.88-2.15-4.62-1.05-9.17-2.51-13.51-4.34-10.13-4.27-18.47-10.67-24.8-19.01-6.31-8.29-9.8-18.44-10.29-30.14-.53-12.48,1.99-23.66,7.49-33.25,5.53-9.58,13.65-17.1,24.14-22.37v.02Z"/>
    <g class="cls-9">
      <path class="cls-5" d="M506.67,305.24h1116.32v222.05H506.67v-222.05Z"/>
    </g>
  </g>
  <g>
    <polygon class="cls-5" points="1866.63 318.24 1798.83 318.24 1701.6 403.74 1717.35 318.24 1669.27 318.24 1633.32 513.28 1633.15 514.33 1681.22 514.33 1698.04 423 1765.67 513.66 1766.19 514.33 1825.68 514.33 1750.08 417.65 1866.63 318.24"/>
    <g class="cls-1">
      <path class="cls-5" d="M1623.74,305.26h446.71v222.05h-446.71v-222.05Z"/>
    </g>
  </g>
  <g>
    <path class="cls-5" d="M2035.67,417.7c-9.21-7.29-20.07-12.27-32.25-14.77-11.89-2.45-27.54-4.46-46.49-5.94-12.64-.91-22.54-1.87-29.46-2.86-6.69-.98-12.37-2.83-16.89-5.46-4.23-2.45-6.38-5.78-6.56-10.15-.34-7.91,4-13.62,13.28-17.39,9.67-3.95,23.08-5.94,39.91-5.94,10.9,0,20.8,1.14,29.44,3.38,8.48,2.2,15.11,5.71,19.72,10.44,4.46,4.55,6.1,10.21,4.98,17.35l-.34,4.61,49.87-23.74-.09-.64c-1.23-7.7-4.32-14.63-9.17-20.64-8.57-10.56-21.14-18.53-37.39-23.66-16.13-5.05-34.51-7.63-54.67-7.63-36.22,0-63.12,6.06-79.9,18.06-17,12.09-25.19,28-24.36,47.26.59,13.87,5.48,24.57,14.53,31.83,8.82,7.11,19.36,11.93,31.36,14.38,11.77,2.38,27.02,4.34,45.36,5.8,12.84.91,23.02,2.01,30.31,3.29,7.15,1.26,13.25,3.36,18.08,6.26,4.59,2.74,6.92,6.47,7.15,11.4.23,5.49-1.62,10.06-5.51,13.57-4.04,3.64-10.4,6.4-18.9,8.16-8.68,1.81-19.88,2.74-33.28,2.74-18.47,0-32.93-2.77-43.01-8.2-9.76-5.26-13.55-13.83-11.52-26.24l.6-4.87-50.69,26.24.07.6c1.74,14.95,9.35,26.78,22.6,35.11,18.78,11.86,45.64,17.87,79.87,17.87,38.23,0,66.32-6.15,83.53-18.31,17.42-12.29,25.8-28.84,24.91-49.2-.59-14.22-5.67-25.21-15.06-32.68l-.02-.02Z"/>
    <g class="cls-2">
      <path class="cls-5" d="M1623.74,305.26h446.71v222.05h-446.71v-222.05Z"/>
    </g>
  </g>
  <g>
    <path class="cls-5" d="M440.8,314.26l-130.66,144.85c-3.82,4.25-10.44,4.43-14.51.37l-13.62-13.64-68.02-67.99-60.7,79.95-35.88,47.26h55.74l44.73-58.92.69-.92,73.32,73.32c6.99,6.99,18.38,6.69,25-.64l123.91-137.36.2-.2v-66.3l-.2.21Z"/>
    <g class="cls-10">
      <path class="cls-5" d="M113.71,210.89h331.2v316.42H113.71V210.89Z"/>
    </g>
  </g>
  <g class="cls-4">
    <path class="cls-7" d="M113.71,210.89h331.2v316.42H113.71V210.89Z"/>
  </g>
</svg>
