<?xml version="1.0" encoding="UTF-8"?>
<svg id="Layer_1" data-name="Layer 1" xmlns="http://www.w3.org/2000/svg" xmlns:xlink="http://www.w3.org/1999/xlink" viewBox="0 0 619.87 154.65">
  <defs>
    <style>
      .cls-1 {
        fill: #fff;
      }

      .cls-2 {
        fill: none;
      }

      .cls-3 {
        clip-path: url(#clippath-1);
      }

      .cls-4 {
        fill: #f7fef9;
      }

      .cls-5 {
        fill: #04f5ff;
      }

      .cls-6 {
        clip-path: url(#clippath);
      }
    </style>
    <clipPath id="clippath">
      <path class="cls-2" d="M128.14,56.21l-38.28,42.43c-1.12,1.24-3.06,1.3-4.25.11l-3.99-3.99-19.93-19.92-17.78,23.42-10.51,13.84h16.33l13.1-17.26.2-.27,21.48,21.48c2.05,2.05,5.39,1.96,7.32-.19l36.3-40.24.06-.06v-19.42l-.06.06Z"/>
    </clipPath>
    <clipPath id="clippath-1">
      <path class="cls-2" d="M88.48,70.98c-.35.4-.83.6-1.32.64-.54.04-1.09-.15-1.51-.57l-12.02-12.02-8.19,10.83,20.66,20.67c.3.3.67.49,1.06.56.67.12,1.38-.09,1.87-.64l39.1-43.35v-20.09l-39.66,43.96Z"/>
    </clipPath>
  </defs>
  <rect class="cls-2" x="33.4" y="56.04" width="94.85" height="61.51"/>
  <g class="cls-6">
    <path class="cls-4" d="M32.32,25.93h97.02v92.69H32.32V25.93Z"/>
  </g>
  <rect class="cls-2" x="65.39" y="27.02" width="62.86" height="64.32"/>
  <g class="cls-3">
    <path class="cls-5" d="M32.32,25.93h97.02v92.69H32.32V25.93Z"/>
  </g>
  <g>
    <polygon class="cls-1" points="440.26 58.07 424.02 58.07 392.83 115.52 407.85 115.52 430.47 72.35 439.72 114.97 439.84 115.52 453.29 115.52 440.3 58.27 440.26 58.07"/>
    <path class="cls-1" d="M273.01,84.2h0c-.24-5.68-2.09-10.64-5.49-14.74-3.38-4.08-7.76-7.2-13.01-9.3-5.24-2.08-10.82-3.14-16.6-3.14-6.92,0-13.08,1.35-18.31,4-5.25,2.67-9.32,6.5-12.09,11.4-2.77,4.9-4.04,10.61-3.77,16.96.24,5.68,2.08,10.64,5.45,14.74,3.36,4.08,7.72,7.21,12.97,9.3,5.23,2.08,10.81,3.14,16.59,3.14,6.92,0,13.08-1.35,18.31-4,5.26-2.67,9.33-6.49,12.14-11.4,2.8-4.9,4.08-10.6,3.81-16.96ZM256.73,95.04h0c-1.66,2.78-4.11,4.97-7.26,6.51-3.17,1.55-6.95,2.33-11.23,2.33-3.32,0-6.56-.6-9.64-1.78-3.06-1.18-5.62-2.97-7.63-5.34-1.98-2.35-3.07-5.24-3.21-8.6-.16-3.59.6-6.83,2.23-9.61,1.64-2.78,4.07-4.97,7.22-6.51,3.18-1.55,6.95-2.33,11.23-2.33,3.32,0,6.56.6,9.65,1.78,3.05,1.18,5.64,2.97,7.67,5.35,2.01,2.34,3.1,5.24,3.24,8.6.16,3.59-.61,6.82-2.27,9.6Z"/>
    <path class="cls-1" d="M335.55,74.92c-.14-3.25-1.02-6.16-2.61-8.68-1.6-2.52-3.99-4.53-7.1-5.99-3.08-1.45-6.81-2.18-11.08-2.18h-31.2l-10.53,57.14-.05.31h14.08l3.24-17.35h24.53c4.2,0,7.96-.99,11.18-2.93,3.22-1.95,5.69-4.72,7.35-8.23,1.65-3.49,2.39-7.56,2.19-12.09ZM320.69,81.51c-.66,1.28-1.63,2.31-2.89,3.04-1.26.74-2.71,1.11-4.29,1.11h-21.58l2.79-15.08h19c1.55,0,2.94.28,4.13.81,1.16.52,2.07,1.28,2.69,2.24.63.96.98,2.06,1.03,3.25.08,1.79-.22,3.34-.88,4.63Z"/>
    <polygon class="cls-1" points="353.54 91.88 384.26 91.88 386.67 80.82 341.46 80.82 335.13 115.21 335.07 115.52 387.27 115.52 389.55 103.24 351.43 103.24 353.54 91.88"/>
    <polygon class="cls-1" points="357.04 70.34 395.14 70.34 397.33 58.07 345.14 58.07 342.88 70.37 356.81 70.37 357.04 70.34"/>
    <polygon class="cls-1" points="527.46 58.07 507.6 58.07 479.12 83.12 483.73 58.07 469.65 58.07 459.12 115.21 459.06 115.52 473.15 115.52 478.07 88.76 497.89 115.32 498.04 115.52 515.46 115.52 493.32 87.19 527.46 58.07"/>
    <path class="cls-1" d="M576.99,87.21h-.01c-2.7-2.14-5.88-3.59-9.45-4.33-3.48-.72-8.07-1.31-13.62-1.74-3.7-.26-6.6-.55-8.63-.84-1.96-.28-3.62-.83-4.95-1.6-1.24-.71-1.87-1.69-1.92-2.97-.1-2.32,1.17-3.99,3.89-5.09,2.84-1.16,6.76-1.74,11.7-1.74,3.19,0,6.09.33,8.62.99,2.48.64,4.43,1.67,5.78,3.05,1.3,1.34,1.78,2.99,1.45,5.09l-.09,1.35,14.61-6.96-.03-.18c-.36-2.26-1.27-4.29-2.69-6.05-2.51-3.1-6.19-5.43-10.95-6.93-4.73-1.48-10.11-2.24-16.02-2.24-10.61,0-18.49,1.78-23.4,5.29-4.98,3.55-7.38,8.21-7.14,13.85.17,4.06,1.61,7.2,4.26,9.32,2.58,2.08,5.67,3.49,9.18,4.21,3.45.7,7.92,1.27,13.29,1.7,3.76.27,6.75.59,8.88.97,2.09.36,3.88.98,5.3,1.83,1.34.8,2.02,1.89,2.09,3.34.07,1.61-.47,2.94-1.61,3.97-1.19,1.07-3.05,1.88-5.54,2.39-2.54.53-5.82.8-9.75.8-5.41,0-9.65-.81-12.6-2.4-2.86-1.54-3.97-4.05-3.37-7.68l.17-1.43-14.85,7.69.03.17c.51,4.38,2.73,7.85,6.62,10.29,5.5,3.47,13.36,5.23,23.39,5.23,11.2,0,19.43-1.8,24.47-5.36,5.1-3.6,7.56-8.45,7.3-14.41-.18-4.17-1.66-7.39-4.41-9.58Z"/>
    <path class="cls-1" d="M159.94,70.12c1.78-.39,3.72-.58,5.74-.58,2.77,0,5.53.39,8.17,1.19,2.61.79,5.02,2.07,7.15,3.82,1.52,1.24,2.77,2.77,3.71,4.54.38.69.72,1.44,1.01,2.22l.12.33h14.01l-.1-.57c-.14-.75-.3-1.46-.48-2.16-1.11-4.23-3.18-7.96-6.15-11.08-3.45-3.64-7.66-6.38-12.5-8.15-4.83-1.77-10-2.66-15.38-2.66-6.64,0-12.6,1.35-17.73,4.01-5.16,2.66-9.17,6.49-11.91,11.39-2.75,4.9-4.01,10.61-3.73,16.96.23,5.52,2,10.42,5.25,14.57,3.22,4.13,7.28,7.3,12.04,9.43,4.76,2.11,9.52,3.18,14.19,3.18,3.87,0,7.3-.61,10.19-1.81,2.89-1.2,5.3-2.82,7.15-4.83l.07-.08c.04-.05.08-.09.11-.13,1.67-1.85,3.05-3.96,4.09-6.3h.16l-5.01,12.11h12.61l5.56-30.18h-31.75l-2.27,10.01h19.25c-.2.4-.44.8-.69,1.22-1.42,2.32-3.56,4.22-6.35,5.67-2.81,1.46-6.42,2.21-10.75,2.21-2.01,0-3.96-.21-5.82-.63-1.36-.31-2.69-.74-3.96-1.27-2.97-1.25-5.41-3.13-7.27-5.57-1.85-2.43-2.87-5.4-3.01-8.83-.16-3.65.58-6.93,2.19-9.74,1.62-2.8,4-5.01,7.07-6.55h0c1.54-.76,3.23-1.35,5.02-1.74Z"/>
  </g>
</svg>